<?xml version="1.0" encoding="UTF-8" standalone="no"?><!DOCTYPE svg PUBLIC "-//W3C//DTD SVG 1.1//EN" "http://www.w3.org/Graphics/SVG/1.1/DTD/svg11.dtd"><!-- Generated by graphviz version 2.40.1 (20161225.0304)
 --><!-- Title: Tree Pages: 1 --><svg xmlns="http://www.w3.org/2000/svg" xmlns:xlink="http://www.w3.org/1999/xlink" width="1114pt" height="511pt" viewBox="0.00 0.00 1114.19 511.20">
<g id="graph0" class="graph" transform="scale(1 1) rotate(0) translate(4 507.2)">
<title>Tree</title>
<polygon fill="#ffffff" stroke="transparent" points="-4,4 -4,-507.2 1110.1935,-507.2 1110.1935,4 -4,4"/>
<!-- 0 -->
<g id="node1" class="node">
<title>0</title>
<polygon fill="#afd7f4" stroke="#000000" points="694.3128,-503.3003 535.5518,-503.3003 535.5518,-427.8997 694.3128,-427.8997 694.3128,-503.3003"/>
<text text-anchor="middle" x="614.9323" y="-486.6" font-family="Helvetica,sans-Serif" font-size="14.00" fill="#000000">worst radius &lt;= 16.795</text>
<text text-anchor="middle" x="614.9323" y="-469.8" font-family="Helvetica,sans-Serif" font-size="14.00" fill="#000000">samples = 426</text>
<text text-anchor="middle" x="614.9323" y="-453" font-family="Helvetica,sans-Serif" font-size="14.00" fill="#000000">value = [159, 267]</text>
<text text-anchor="middle" x="614.9323" y="-436.2" font-family="Helvetica,sans-Serif" font-size="14.00" fill="#000000">class = benign</text>
</g>
<!-- 1 -->
<g id="node2" class="node">
<title>1</title>
<polygon fill="#4ca6e8" stroke="#000000" points="596.7808,-392.1003 391.0838,-392.1003 391.0838,-316.6997 596.7808,-316.6997 596.7808,-392.1003"/>
<text text-anchor="middle" x="493.9323" y="-375.4" font-family="Helvetica,sans-Serif" font-size="14.00" fill="#000000">worst concave points &lt;= 0.136</text>
<text text-anchor="middle" x="493.9323" y="-358.6" font-family="Helvetica,sans-Serif" font-size="14.00" fill="#000000">samples = 284</text>
<text text-anchor="middle" x="493.9323" y="-341.8" font-family="Helvetica,sans-Serif" font-size="14.00" fill="#000000">value = [25, 259]</text>
<text text-anchor="middle" x="493.9323" y="-325" font-family="Helvetica,sans-Serif" font-size="14.00" fill="#000000">class = benign</text>
</g>
<!-- 0&#45;&gt;1 -->
<g id="edge1" class="edge">
<title>0-&gt;1</title>
<path fill="none" stroke="#000000" d="M573.9672,-427.9528C563.816,-418.6237 552.8427,-408.5392 542.3719,-398.9164"/>
<polygon fill="#000000" stroke="#000000" points="544.5865,-396.1981 534.8552,-392.0085 539.8498,-401.3522 544.5865,-396.1981"/>
<text text-anchor="middle" x="535.9094" y="-412.7862" font-family="Helvetica,sans-Serif" font-size="14.00" fill="#000000">True</text>
</g>
<!-- 14 -->
<g id="node15" class="node">
<title>14</title>
<polygon fill="#e78945" stroke="#000000" points="778.8114,-392.1003 627.0532,-392.1003 627.0532,-316.6997 778.8114,-316.6997 778.8114,-392.1003"/>
<text text-anchor="middle" x="702.9323" y="-375.4" font-family="Helvetica,sans-Serif" font-size="14.00" fill="#000000">texture error &lt;= 0.473</text>
<text text-anchor="middle" x="702.9323" y="-358.6" font-family="Helvetica,sans-Serif" font-size="14.00" fill="#000000">samples = 142</text>
<text text-anchor="middle" x="702.9323" y="-341.8" font-family="Helvetica,sans-Serif" font-size="14.00" fill="#000000">value = [134, 8]</text>
<text text-anchor="middle" x="702.9323" y="-325" font-family="Helvetica,sans-Serif" font-size="14.00" fill="#000000">class = malignant</text>
</g>
<!-- 0&#45;&gt;14 -->
<g id="edge14" class="edge">
<title>0-&gt;14</title>
<path fill="none" stroke="#000000" d="M644.7251,-427.9528C651.8211,-418.986 659.4694,-409.3213 666.8147,-400.0395"/>
<polygon fill="#000000" stroke="#000000" points="669.7091,-402.0221 673.1702,-392.0085 664.22,-397.6781 669.7091,-402.0221"/>
<text text-anchor="middle" x="676.0623" y="-412.6406" font-family="Helvetica,sans-Serif" font-size="14.00" fill="#000000">False</text>
</g>
<!-- 2 -->
<g id="node3" class="node">
<title>2</title>
<polygon fill="#3c9fe5" stroke="#000000" points="382.1366,-280.9003 235.728,-280.9003 235.728,-205.4997 382.1366,-205.4997 382.1366,-280.9003"/>
<text text-anchor="middle" x="308.9323" y="-264.2" font-family="Helvetica,sans-Serif" font-size="14.00" fill="#000000">radius error &lt;= 1.048</text>
<text text-anchor="middle" x="308.9323" y="-247.4" font-family="Helvetica,sans-Serif" font-size="14.00" fill="#000000">samples = 252</text>
<text text-anchor="middle" x="308.9323" y="-230.6" font-family="Helvetica,sans-Serif" font-size="14.00" fill="#000000">value = [4, 248]</text>
<text text-anchor="middle" x="308.9323" y="-213.8" font-family="Helvetica,sans-Serif" font-size="14.00" fill="#000000">class = benign</text>
</g>
<!-- 1&#45;&gt;2 -->
<g id="edge2" class="edge">
<title>1-&gt;2</title>
<path fill="none" stroke="#000000" d="M431.2997,-316.7528C414.8751,-306.8802 397.0431,-296.1617 380.2033,-286.0397"/>
<polygon fill="#000000" stroke="#000000" points="381.8743,-282.9605 371.5004,-280.8085 378.2681,-288.9601 381.8743,-282.9605"/>
</g>
<!-- 7 -->
<g id="node8" class="node">
<title>7</title>
<polygon fill="#f3c3a1" stroke="#000000" points="571.7045,-280.9003 416.1601,-280.9003 416.1601,-205.4997 571.7045,-205.4997 571.7045,-280.9003"/>
<text text-anchor="middle" x="493.9323" y="-264.2" font-family="Helvetica,sans-Serif" font-size="14.00" fill="#000000">worst texture &lt;= 25.62</text>
<text text-anchor="middle" x="493.9323" y="-247.4" font-family="Helvetica,sans-Serif" font-size="14.00" fill="#000000">samples = 32</text>
<text text-anchor="middle" x="493.9323" y="-230.6" font-family="Helvetica,sans-Serif" font-size="14.00" fill="#000000">value = [21, 11]</text>
<text text-anchor="middle" x="493.9323" y="-213.8" font-family="Helvetica,sans-Serif" font-size="14.00" fill="#000000">class = malignant</text>
</g>
<!-- 1&#45;&gt;7 -->
<g id="edge7" class="edge">
<title>1-&gt;7</title>
<path fill="none" stroke="#000000" d="M493.9323,-316.7528C493.9323,-308.42 493.9323,-299.4845 493.9323,-290.8137"/>
<polygon fill="#000000" stroke="#000000" points="497.4324,-290.8084 493.9323,-280.8085 490.4324,-290.8085 497.4324,-290.8084"/>
</g>
<!-- 3 -->
<g id="node4" class="node">
<title>3</title>
<polygon fill="#3b9ee5" stroke="#000000" points="228.9855,-169.7003 44.8791,-169.7003 44.8791,-94.2997 228.9855,-94.2997 228.9855,-169.7003"/>
<text text-anchor="middle" x="136.9323" y="-153" font-family="Helvetica,sans-Serif" font-size="14.00" fill="#000000">smoothness error &lt;= 0.003</text>
<text text-anchor="middle" x="136.9323" y="-136.2" font-family="Helvetica,sans-Serif" font-size="14.00" fill="#000000">samples = 251</text>
<text text-anchor="middle" x="136.9323" y="-119.4" font-family="Helvetica,sans-Serif" font-size="14.00" fill="#000000">value = [3, 248]</text>
<text text-anchor="middle" x="136.9323" y="-102.6" font-family="Helvetica,sans-Serif" font-size="14.00" fill="#000000">class = benign</text>
</g>
<!-- 2&#45;&gt;3 -->
<g id="edge3" class="edge">
<title>2-&gt;3</title>
<path fill="none" stroke="#000000" d="M250.7009,-205.5528C235.5706,-195.7708 219.1556,-185.1583 203.6262,-175.1184"/>
<polygon fill="#000000" stroke="#000000" points="205.4018,-172.0986 195.1037,-169.6085 201.6012,-177.977 205.4018,-172.0986"/>
</g>
<!-- 6 -->
<g id="node7" class="node">
<title>6</title>
<polygon fill="#e58139" stroke="#000000" points="370.9556,-161.4014 246.909,-161.4014 246.909,-102.5986 370.9556,-102.5986 370.9556,-161.4014"/>
<text text-anchor="middle" x="308.9323" y="-144.6" font-family="Helvetica,sans-Serif" font-size="14.00" fill="#000000">samples = 1</text>
<text text-anchor="middle" x="308.9323" y="-127.8" font-family="Helvetica,sans-Serif" font-size="14.00" fill="#000000">value = [1, 0]</text>
<text text-anchor="middle" x="308.9323" y="-111" font-family="Helvetica,sans-Serif" font-size="14.00" fill="#000000">class = malignant</text>
</g>
<!-- 2&#45;&gt;6 -->
<g id="edge6" class="edge">
<title>2-&gt;6</title>
<path fill="none" stroke="#000000" d="M308.9323,-205.5528C308.9323,-194.6662 308.9323,-182.751 308.9323,-171.7411"/>
<polygon fill="#000000" stroke="#000000" points="312.4324,-171.5258 308.9323,-161.5258 305.4324,-171.5259 312.4324,-171.5258"/>
</g>
<!-- 4 -->
<g id="node5" class="node">
<title>4</title>
<polygon fill="#7bbeee" stroke="#000000" points="105.797,-58.6014 .0676,-58.6014 .0676,.2014 105.797,.2014 105.797,-58.6014"/>
<text text-anchor="middle" x="52.9323" y="-41.8" font-family="Helvetica,sans-Serif" font-size="14.00" fill="#000000">samples = 4</text>
<text text-anchor="middle" x="52.9323" y="-25" font-family="Helvetica,sans-Serif" font-size="14.00" fill="#000000">value = [1, 3]</text>
<text text-anchor="middle" x="52.9323" y="-8.2" font-family="Helvetica,sans-Serif" font-size="14.00" fill="#000000">class = benign</text>
</g>
<!-- 3&#45;&gt;4 -->
<g id="edge4" class="edge">
<title>3-&gt;4</title>
<path fill="none" stroke="#000000" d="M106.1308,-94.3048C98.6705,-85.1748 90.7017,-75.4225 83.2633,-66.3193"/>
<polygon fill="#000000" stroke="#000000" points="85.9269,-64.0476 76.8892,-58.5186 80.5064,-68.4769 85.9269,-64.0476"/>
</g>
<!-- 5 -->
<g id="node6" class="node">
<title>5</title>
<polygon fill="#3b9ee5" stroke="#000000" points="236.0353,-58.6014 123.8293,-58.6014 123.8293,.2014 236.0353,.2014 236.0353,-58.6014"/>
<text text-anchor="middle" x="179.9323" y="-41.8" font-family="Helvetica,sans-Serif" font-size="14.00" fill="#000000">samples = 247</text>
<text text-anchor="middle" x="179.9323" y="-25" font-family="Helvetica,sans-Serif" font-size="14.00" fill="#000000">value = [2, 245]</text>
<text text-anchor="middle" x="179.9323" y="-8.2" font-family="Helvetica,sans-Serif" font-size="14.00" fill="#000000">class = benign</text>
</g>
<!-- 3&#45;&gt;5 -->
<g id="edge5" class="edge">
<title>3-&gt;5</title>
<path fill="none" stroke="#000000" d="M152.6997,-94.3048C156.2872,-85.7282 160.1045,-76.6024 163.7105,-67.9813"/>
<polygon fill="#000000" stroke="#000000" points="167.0386,-69.0947 167.6687,-58.5186 160.5808,-66.3935 167.0386,-69.0947"/>
</g>
<!-- 8 -->
<g id="node9" class="node">
<title>8</title>
<polygon fill="#7bbeee" stroke="#000000" points="576.8789,-169.7003 388.9857,-169.7003 388.9857,-94.2997 576.8789,-94.2997 576.8789,-169.7003"/>
<text text-anchor="middle" x="482.9323" y="-153" font-family="Helvetica,sans-Serif" font-size="14.00" fill="#000000">worst smoothness &lt;= 0.179</text>
<text text-anchor="middle" x="482.9323" y="-136.2" font-family="Helvetica,sans-Serif" font-size="14.00" fill="#000000">samples = 12</text>
<text text-anchor="middle" x="482.9323" y="-119.4" font-family="Helvetica,sans-Serif" font-size="14.00" fill="#000000">value = [3, 9]</text>
<text text-anchor="middle" x="482.9323" y="-102.6" font-family="Helvetica,sans-Serif" font-size="14.00" fill="#000000">class = benign</text>
</g>
<!-- 7&#45;&gt;8 -->
<g id="edge8" class="edge">
<title>7-&gt;8</title>
<path fill="none" stroke="#000000" d="M490.2082,-205.5528C489.3839,-197.22 488.5,-188.2845 487.6423,-179.6137"/>
<polygon fill="#000000" stroke="#000000" points="491.1201,-179.2153 486.6526,-169.6085 484.1541,-179.9045 491.1201,-179.2153"/>
</g>
<!-- 11 -->
<g id="node12" class="node">
<title>11</title>
<polygon fill="#e88f4f" stroke="#000000" points="768.5698,-169.7003 595.2948,-169.7003 595.2948,-94.2997 768.5698,-94.2997 768.5698,-169.7003"/>
<text text-anchor="middle" x="681.9323" y="-153" font-family="Helvetica,sans-Serif" font-size="14.00" fill="#000000">worst symmetry &lt;= 0.268</text>
<text text-anchor="middle" x="681.9323" y="-136.2" font-family="Helvetica,sans-Serif" font-size="14.00" fill="#000000">samples = 20</text>
<text text-anchor="middle" x="681.9323" y="-119.4" font-family="Helvetica,sans-Serif" font-size="14.00" fill="#000000">value = [18, 2]</text>
<text text-anchor="middle" x="681.9323" y="-102.6" font-family="Helvetica,sans-Serif" font-size="14.00" fill="#000000">class = malignant</text>
</g>
<!-- 7&#45;&gt;11 -->
<g id="edge11" class="edge">
<title>7-&gt;11</title>
<path fill="none" stroke="#000000" d="M557.5805,-205.5528C574.2715,-195.6802 592.3927,-184.9617 609.5055,-174.8397"/>
<polygon fill="#000000" stroke="#000000" points="611.5244,-177.712 618.3496,-169.6085 607.9607,-171.687 611.5244,-177.712"/>
</g>
<!-- 9 -->
<g id="node10" class="node">
<title>9</title>
<polygon fill="#4fa8e8" stroke="#000000" points="402.797,-58.6014 297.0676,-58.6014 297.0676,.2014 402.797,.2014 402.797,-58.6014"/>
<text text-anchor="middle" x="349.9323" y="-41.8" font-family="Helvetica,sans-Serif" font-size="14.00" fill="#000000">samples = 10</text>
<text text-anchor="middle" x="349.9323" y="-25" font-family="Helvetica,sans-Serif" font-size="14.00" fill="#000000">value = [1, 9]</text>
<text text-anchor="middle" x="349.9323" y="-8.2" font-family="Helvetica,sans-Serif" font-size="14.00" fill="#000000">class = benign</text>
</g>
<!-- 8&#45;&gt;9 -->
<g id="edge9" class="edge">
<title>8-&gt;9</title>
<path fill="none" stroke="#000000" d="M434.1632,-94.3048C421.6352,-84.6215 408.2015,-74.2382 395.8246,-64.6717"/>
<polygon fill="#000000" stroke="#000000" points="397.9165,-61.8649 387.864,-58.5186 393.6356,-67.4034 397.9165,-61.8649"/>
</g>
<!-- 10 -->
<g id="node11" class="node">
<title>10</title>
<polygon fill="#e58139" stroke="#000000" points="544.9556,-58.6014 420.909,-58.6014 420.909,.2014 544.9556,.2014 544.9556,-58.6014"/>
<text text-anchor="middle" x="482.9323" y="-41.8" font-family="Helvetica,sans-Serif" font-size="14.00" fill="#000000">samples = 2</text>
<text text-anchor="middle" x="482.9323" y="-25" font-family="Helvetica,sans-Serif" font-size="14.00" fill="#000000">value = [2, 0]</text>
<text text-anchor="middle" x="482.9323" y="-8.2" font-family="Helvetica,sans-Serif" font-size="14.00" fill="#000000">class = malignant</text>
</g>
<!-- 8&#45;&gt;10 -->
<g id="edge10" class="edge">
<title>8-&gt;10</title>
<path fill="none" stroke="#000000" d="M482.9323,-94.3048C482.9323,-85.9126 482.9323,-76.9946 482.9323,-68.5382"/>
<polygon fill="#000000" stroke="#000000" points="486.4324,-68.5186 482.9323,-58.5186 479.4324,-68.5187 486.4324,-68.5186"/>
</g>
<!-- 12 -->
<g id="node13" class="node">
<title>12</title>
<polygon fill="#9ccef2" stroke="#000000" points="668.797,-58.6014 563.0676,-58.6014 563.0676,.2014 668.797,.2014 668.797,-58.6014"/>
<text text-anchor="middle" x="615.9323" y="-41.8" font-family="Helvetica,sans-Serif" font-size="14.00" fill="#000000">samples = 3</text>
<text text-anchor="middle" x="615.9323" y="-25" font-family="Helvetica,sans-Serif" font-size="14.00" fill="#000000">value = [1, 2]</text>
<text text-anchor="middle" x="615.9323" y="-8.2" font-family="Helvetica,sans-Serif" font-size="14.00" fill="#000000">class = benign</text>
</g>
<!-- 11&#45;&gt;12 -->
<g id="edge12" class="edge">
<title>11-&gt;12</title>
<path fill="none" stroke="#000000" d="M657.7311,-94.3048C652.0471,-85.4515 645.9873,-76.013 640.2962,-67.1487"/>
<polygon fill="#000000" stroke="#000000" points="643.1034,-65.0427 634.7555,-58.5186 637.213,-68.8246 643.1034,-65.0427"/>
</g>
<!-- 13 -->
<g id="node14" class="node">
<title>13</title>
<polygon fill="#e58139" stroke="#000000" points="810.9556,-58.6014 686.909,-58.6014 686.909,.2014 810.9556,.2014 810.9556,-58.6014"/>
<text text-anchor="middle" x="748.9323" y="-41.8" font-family="Helvetica,sans-Serif" font-size="14.00" fill="#000000">samples = 17</text>
<text text-anchor="middle" x="748.9323" y="-25" font-family="Helvetica,sans-Serif" font-size="14.00" fill="#000000">value = [17, 0]</text>
<text text-anchor="middle" x="748.9323" y="-8.2" font-family="Helvetica,sans-Serif" font-size="14.00" fill="#000000">class = malignant</text>
</g>
<!-- 11&#45;&gt;13 -->
<g id="edge13" class="edge">
<title>11-&gt;13</title>
<path fill="none" stroke="#000000" d="M706.5002,-94.3048C712.2703,-85.4515 718.4219,-76.013 724.1992,-67.1487"/>
<polygon fill="#000000" stroke="#000000" points="727.2958,-68.8075 729.8239,-58.5186 721.4314,-64.9853 727.2958,-68.8075"/>
</g>
<!-- 15 -->
<g id="node16" class="node">
<title>15</title>
<polygon fill="#399de5" stroke="#000000" points="755.797,-272.6014 650.0676,-272.6014 650.0676,-213.7986 755.797,-213.7986 755.797,-272.6014"/>
<text text-anchor="middle" x="702.9323" y="-255.8" font-family="Helvetica,sans-Serif" font-size="14.00" fill="#000000">samples = 5</text>
<text text-anchor="middle" x="702.9323" y="-239" font-family="Helvetica,sans-Serif" font-size="14.00" fill="#000000">value = [0, 5]</text>
<text text-anchor="middle" x="702.9323" y="-222.2" font-family="Helvetica,sans-Serif" font-size="14.00" fill="#000000">class = benign</text>
</g>
<!-- 14&#45;&gt;15 -->
<g id="edge15" class="edge">
<title>14-&gt;15</title>
<path fill="none" stroke="#000000" d="M702.9323,-316.7528C702.9323,-305.8662 702.9323,-293.951 702.9323,-282.9411"/>
<polygon fill="#000000" stroke="#000000" points="706.4324,-282.7258 702.9323,-272.7258 699.4324,-282.7259 706.4324,-282.7258"/>
</g>
<!-- 16 -->
<g id="node17" class="node">
<title>16</title>
<polygon fill="#e6843d" stroke="#000000" points="967.2598,-280.9003 796.6048,-280.9003 796.6048,-205.4997 967.2598,-205.4997 967.2598,-280.9003"/>
<text text-anchor="middle" x="881.9323" y="-264.2" font-family="Helvetica,sans-Serif" font-size="14.00" fill="#000000">worst concavity &lt;= 0.191</text>
<text text-anchor="middle" x="881.9323" y="-247.4" font-family="Helvetica,sans-Serif" font-size="14.00" fill="#000000">samples = 137</text>
<text text-anchor="middle" x="881.9323" y="-230.6" font-family="Helvetica,sans-Serif" font-size="14.00" fill="#000000">value = [134, 3]</text>
<text text-anchor="middle" x="881.9323" y="-213.8" font-family="Helvetica,sans-Serif" font-size="14.00" fill="#000000">class = malignant</text>
</g>
<!-- 14&#45;&gt;16 -->
<g id="edge16" class="edge">
<title>14-&gt;16</title>
<path fill="none" stroke="#000000" d="M763.5335,-316.7528C779.2797,-306.9708 796.3627,-296.3583 812.5241,-286.3184"/>
<polygon fill="#000000" stroke="#000000" points="814.7461,-289.0585 821.3935,-280.8085 811.0522,-283.1124 814.7461,-289.0585"/>
</g>
<!-- 17 -->
<g id="node18" class="node">
<title>17</title>
<polygon fill="#bddef6" stroke="#000000" points="963.4869,-169.7003 800.3777,-169.7003 800.3777,-94.2997 963.4869,-94.2997 963.4869,-169.7003"/>
<text text-anchor="middle" x="881.9323" y="-153" font-family="Helvetica,sans-Serif" font-size="14.00" fill="#000000">worst texture &lt;= 30.975</text>
<text text-anchor="middle" x="881.9323" y="-136.2" font-family="Helvetica,sans-Serif" font-size="14.00" fill="#000000">samples = 5</text>
<text text-anchor="middle" x="881.9323" y="-119.4" font-family="Helvetica,sans-Serif" font-size="14.00" fill="#000000">value = [2, 3]</text>
<text text-anchor="middle" x="881.9323" y="-102.6" font-family="Helvetica,sans-Serif" font-size="14.00" fill="#000000">class = benign</text>
</g>
<!-- 16&#45;&gt;17 -->
<g id="edge17" class="edge">
<title>16-&gt;17</title>
<path fill="none" stroke="#000000" d="M881.9323,-205.5528C881.9323,-197.22 881.9323,-188.2845 881.9323,-179.6137"/>
<polygon fill="#000000" stroke="#000000" points="885.4324,-179.6084 881.9323,-169.6085 878.4324,-179.6085 885.4324,-179.6084"/>
</g>
<!-- 20 -->
<g id="node21" class="node">
<title>20</title>
<polygon fill="#e58139" stroke="#000000" points="1105.9556,-161.4014 981.909,-161.4014 981.909,-102.5986 1105.9556,-102.5986 1105.9556,-161.4014"/>
<text text-anchor="middle" x="1043.9323" y="-144.6" font-family="Helvetica,sans-Serif" font-size="14.00" fill="#000000">samples = 132</text>
<text text-anchor="middle" x="1043.9323" y="-127.8" font-family="Helvetica,sans-Serif" font-size="14.00" fill="#000000">value = [132, 0]</text>
<text text-anchor="middle" x="1043.9323" y="-111" font-family="Helvetica,sans-Serif" font-size="14.00" fill="#000000">class = malignant</text>
</g>
<!-- 16&#45;&gt;20 -->
<g id="edge20" class="edge">
<title>16-&gt;20</title>
<path fill="none" stroke="#000000" d="M936.7781,-205.5528C954.8425,-193.153 974.851,-179.4188 992.6403,-167.2079"/>
<polygon fill="#000000" stroke="#000000" points="994.9128,-169.8932 1001.1767,-161.3483 990.9513,-164.122 994.9128,-169.8932"/>
</g>
<!-- 18 -->
<g id="node19" class="node">
<title>18</title>
<polygon fill="#399de5" stroke="#000000" points="934.797,-58.6014 829.0676,-58.6014 829.0676,.2014 934.797,.2014 934.797,-58.6014"/>
<text text-anchor="middle" x="881.9323" y="-41.8" font-family="Helvetica,sans-Serif" font-size="14.00" fill="#000000">samples = 3</text>
<text text-anchor="middle" x="881.9323" y="-25" font-family="Helvetica,sans-Serif" font-size="14.00" fill="#000000">value = [0, 3]</text>
<text text-anchor="middle" x="881.9323" y="-8.2" font-family="Helvetica,sans-Serif" font-size="14.00" fill="#000000">class = benign</text>
</g>
<!-- 17&#45;&gt;18 -->
<g id="edge18" class="edge">
<title>17-&gt;18</title>
<path fill="none" stroke="#000000" d="M881.9323,-94.3048C881.9323,-85.9126 881.9323,-76.9946 881.9323,-68.5382"/>
<polygon fill="#000000" stroke="#000000" points="885.4324,-68.5186 881.9323,-58.5186 878.4324,-68.5187 885.4324,-68.5186"/>
</g>
<!-- 19 -->
<g id="node20" class="node">
<title>19</title>
<polygon fill="#e58139" stroke="#000000" points="1076.9556,-58.6014 952.909,-58.6014 952.909,.2014 1076.9556,.2014 1076.9556,-58.6014"/>
<text text-anchor="middle" x="1014.9323" y="-41.8" font-family="Helvetica,sans-Serif" font-size="14.00" fill="#000000">samples = 2</text>
<text text-anchor="middle" x="1014.9323" y="-25" font-family="Helvetica,sans-Serif" font-size="14.00" fill="#000000">value = [2, 0]</text>
<text text-anchor="middle" x="1014.9323" y="-8.2" font-family="Helvetica,sans-Serif" font-size="14.00" fill="#000000">class = malignant</text>
</g>
<!-- 17&#45;&gt;19 -->
<g id="edge19" class="edge">
<title>17-&gt;19</title>
<path fill="none" stroke="#000000" d="M930.7014,-94.3048C943.2294,-84.6215 956.6631,-74.2382 969.04,-64.6717"/>
<polygon fill="#000000" stroke="#000000" points="971.229,-67.4034 977.0006,-58.5186 966.9481,-61.8649 971.229,-67.4034"/>
</g>
</g>
</svg>